
<svg version="1.1" xmlns="http://www.w3.org/2000/svg" xmlns:xlink="http://www.w3.org/1999/xlink" x="0px" y="0px" viewBox="0 0 1000 1000" enable-background="new 0 0 1000 1000" xml:space="preserve">
<g><g transform="translate(0.000000,511.000000) scale(0.100000,-0.100000)"><path d="M4477,4988c-1596.5-174.6-3016.3-1129.5-3786.2-2543C-66.4,1054.6-98-638.7,608.8-2054.3c273.4-551.1,580.5-967.6,1011.7-1381.9c732-698.3,1647-1146.4,2667.1-1306.2c338.7-52.6,1091.7-52.6,1430.3,0C7329.2-4490,8702.8-3484.6,9399-2048c281.9,580.6,424.9,1087.5,485.9,1716.4c29.5,315.5,14.7,862.4-33.7,1177.9C9556.7,2754.1,8164.3,4321.2,6307,4834.4c-433.3,119.9-711,157.8-1209.5,166.2C4855.6,5004.8,4575.8,4998.5,4477,4988z M5602.3,4325.4c1449.3-197.7,2717.6-1165.3,3304.5-2522c101-235.6,201.9-546.9,258.7-799.3c88.3-393.3,111.5-1015.9,54.7-1445c-227.2-1724.8-1480.8-3136.2-3172-3569.5c-483.8-124.1-1083.3-162-1586-96.8C2556.6-3859,1061-2384.5,787.6-485.1c-42.1,296.6-44.2,887.6-2.1,1180C958,1908.5,1620.5,2968.7,2634.4,3648.1C3511.5,4234.9,4535.9,4470.5,5602.3,4325.4z" fill="#767676"/><path d="M4624.2,3652.3c-740.4-92.5-1411.4-389.1-1970.9-870.8C2085.4,2295.6,1662.6,1557.3,1506.9,779c-40-201.9-48.4-305-48.4-668.9c0-477.5,35.8-715.1,159.9-1100.1c79.9-248.2,298.7-694.1,443.8-902.4c1007.5-1451.4,2885.9-1958.3,4465.6-1207.4c1236.8,586.8,2029.8,1842.6,2029.8,3209.8c0,1522.9-980.2,2888-2416.8,3365.5c-403.8,134.6-612.1,170.4-1053.8,178.8C4872.4,3658.6,4664.2,3656.5,4624.2,3652.3z M5297.3,2272.4v-279.8l151.4-35.8c208.3-50.5,355.5-126.2,498.5-260.8c195.6-180.9,317.6-458.5,317.6-727.8v-122h-368.1h-368.1v69.4c0,239.8-155.6,452.2-359.7,496.4c-336.6,73.6-565.8-105.2-565.8-439.6c0-281.9,138.8-416.5,614.2-599.5c591.1-227.2,870.8-435.4,982.3-736.2c149.3-401.8,84.1-822.5-172.5-1095.9c-147.2-159.9-380.7-284-603.7-326c-75.7-12.6-149.3-27.3-162-31.6c-21-4.2-27.3-75.7-27.3-260.8v-252.4h-199.8h-197.7l-6.3,256.6l-6.3,256.6l-147.2,25.2c-591.1,103.1-957.1,496.4-957.1,1028.6v115.7h368.1h368.1V-727c0-366,321.8-593.2,723.6-509c235.6,48.4,363.9,233.5,342.9,494.3c-18.9,252.4-174.6,397.5-586.9,546.9C4645.3-89.7,4346.6,66,4195.1,188c-227.2,185.1-321.8,372.3-342.9,694.1c-40,586.8,315.5,1005.4,946.5,1110.6l77.8,12.6v271.3v273.4H5087h210.4V2272.4z" fill="#767676"/></g></g>
</svg>